<svg xmlns="http://www.w3.org/2000/svg" width="32" height="32" viewBox="0 0 32 32" fill="none" role="img" aria-label="InvoicePilot AI">
  <defs>
    <linearGradient id="ipl-bg" x1="0" y1="0" x2="32" y2="32" gradientUnits="userSpaceOnUse">
      <stop offset="0" stop-color="#5F7FF5"/>
      <stop offset=".55" stop-color="#3B5FCC"/>
      <stop offset="1" stop-color="#28399B"/>
    </linearGradient>
    <linearGradient id="ipl-sheen" x1="16" y1="0" x2="16" y2="19" gradientUnits="userSpaceOnUse">
      <stop offset="0" stop-color="#FFFFFF" stop-opacity=".2"/>
      <stop offset="1" stop-color="#FFFFFF" stop-opacity="0"/>
    </linearGradient>
    <linearGradient id="ipl-wing" x1="25.5" y1="7.5" x2="12.6" y2="25" gradientUnits="userSpaceOnUse">
      <stop offset="0" stop-color="#FFFFFF"/>
      <stop offset="1" stop-color="#BDCFFF"/>
    </linearGradient>
  </defs>
  <rect width="32" height="32" rx="9" fill="url(#ipl-bg)"/>
  <rect width="32" height="32" rx="9" fill="url(#ipl-sheen)"/>
  <path d="M25.5 7.5 6.5 15.6 15.2 17.2Z" fill="#FFFFFF"/>
  <path d="M25.5 7.5 15.2 17.2 12.6 25Z" fill="url(#ipl-wing)"/>
  <path d="M8.8 6.2C9.15 7.85 9.75 8.45 11.4 8.8 9.75 9.15 9.15 9.75 8.8 11.4 8.45 9.75 7.85 9.15 6.2 8.8 7.85 8.45 8.45 7.85 8.8 6.2Z" fill="#5CEAD0"/>
  <circle cx="12.5" cy="6.2" r=".8" fill="#5CEAD0" opacity=".6"/>
</svg>
